<svg width="204" height="114" viewBox="0 0 204 114" fill="none" xmlns="http://www.w3.org/2000/svg">
<path d="M62.1722 52.1094C62.5826 52.1094 62.7194 52.2576 62.7194 52.6566V61.6854H67.3592C67.7582 61.6854 67.9064 61.8336 67.9064 62.2326V63.0306C67.9064 63.4296 67.7582 63.5778 67.3592 63.5778H61.2488C60.8498 63.5778 60.6902 63.4296 60.6902 63.0306V52.6566C60.6902 52.2576 60.8498 52.1094 61.2488 52.1094H62.1722Z" fill="#394149"/>
<path d="M71.9534 56.0881C71.9534 53.4547 73.6178 51.8701 76.5134 51.8701C79.409 51.8701 81.0734 53.4547 81.0734 56.0881V59.5993C81.0734 62.2327 79.3976 63.8173 76.5134 63.8173C73.6292 63.8173 71.9534 62.2327 71.9534 59.5993V56.0881ZM79.1582 56.0881C79.1582 54.6061 78.2348 53.8081 76.5704 53.8081C74.906 53.8081 73.994 54.6175 73.994 56.0881V59.6221C73.994 61.1155 74.906 61.9021 76.5704 61.9021C78.2348 61.9021 79.1582 61.0813 79.1582 59.6221V56.0881Z" fill="#394149"/>
<path d="M94.6507 57.2965C95.0953 57.2965 95.1979 57.4447 95.1979 57.8437V60.0097C95.21 60.5199 95.1077 61.0263 94.8986 61.4918C94.6895 61.9574 94.3789 62.3702 93.9895 62.7001C93.0225 63.4701 91.8031 63.8522 90.5695 63.7717C87.6169 63.7717 86.0095 62.1871 86.0095 59.5537V56.0197C86.0095 53.4205 87.6739 51.8245 90.5695 51.8245C92.8495 51.8245 94.3315 52.7251 94.9585 54.5263C94.9936 54.5939 95.0124 54.6689 95.0134 54.7451C95.0145 54.8213 94.9977 54.8967 94.9645 54.9653C94.9313 55.0339 94.8826 55.0939 94.8222 55.1403C94.7618 55.1868 94.6914 55.2186 94.6165 55.2331L93.7273 55.5409C93.3397 55.6777 93.1801 55.5979 93.0433 55.1989C92.8545 54.7119 92.5087 54.3018 92.0607 54.0334C91.6127 53.765 91.0879 53.6536 90.5695 53.7169C88.8937 53.7169 87.9817 54.5263 87.9817 55.9969V59.6221C87.9817 61.1155 88.9051 61.9021 90.5695 61.9021C92.2339 61.9021 93.2599 61.1383 93.2599 60.0211V59.1775H90.7861C90.3757 59.1775 90.2275 59.0179 90.2275 58.6189V57.8437C90.2275 57.4447 90.3757 57.2965 90.7861 57.2965H94.6507Z" fill="#394149"/>
<path d="M99.9062 56.0881C99.9062 53.4547 101.571 51.8701 104.466 51.8701C107.362 51.8701 109.026 53.4547 109.026 56.0881V59.5993C109.026 62.2327 107.35 63.8173 104.466 63.8173C101.582 63.8173 99.9062 62.2327 99.9062 59.5993V56.0881ZM107.1 56.0881C107.1 54.6061 106.176 53.8081 104.523 53.8081C102.87 53.8081 101.935 54.6175 101.935 56.0881V59.6221C101.935 61.1155 102.859 61.9021 104.523 61.9021C106.188 61.9021 107.1 61.0813 107.1 59.6221V56.0881Z" fill="#394149"/>
<path d="M114.396 52.44C114.396 52.1892 114.475 52.1094 114.726 52.1094H115.251C115.501 52.1094 115.558 52.1892 115.558 52.44V63.2472C115.558 63.498 115.558 63.5778 115.251 63.5778H114.726C114.475 63.5778 114.396 63.498 114.396 63.2472V52.44Z" fill="#394149"/>
<path d="M125.944 52.1094C126.893 52.1094 127.803 52.4865 128.475 53.1578C129.146 53.8291 129.523 54.7396 129.523 55.689C129.523 56.6383 129.146 57.5488 128.475 58.2201C127.803 58.8914 126.893 59.2686 125.944 59.2686H122.524V63.2472C122.524 63.498 122.467 63.5778 122.227 63.5778H121.691C121.452 63.5778 121.361 63.498 121.361 63.2472V52.44C121.361 52.1892 121.452 52.1094 121.691 52.1094H125.944ZM125.841 58.14C126.167 58.14 126.491 58.0757 126.792 57.9508C127.094 57.8259 127.368 57.6428 127.598 57.4121C127.829 57.1813 128.012 56.9073 128.137 56.6058C128.262 56.3043 128.326 55.9811 128.326 55.6548C128.326 55.3284 128.262 55.0052 128.137 54.7037C128.012 54.4022 127.829 54.1282 127.598 53.8975C127.368 53.6667 127.094 53.4836 126.792 53.3588C126.491 53.2339 126.167 53.1696 125.841 53.1696H122.421V58.14H125.841Z" fill="#394149"/>
<path d="M138.427 51.8813C139.307 51.7842 140.195 51.9735 140.959 52.4212C141.723 52.8689 142.322 53.5511 142.667 54.3665C142.759 54.5489 142.667 54.6971 142.485 54.7883L141.983 55.0163C141.778 55.0961 141.698 55.0847 141.573 54.8681C141.315 54.263 140.871 53.7557 140.305 53.4196C139.739 53.0835 139.082 52.936 138.427 52.9985C136.5 52.9985 135.451 53.7623 135.451 55.1303C135.44 55.5484 135.58 55.9564 135.847 56.279C136.113 56.6017 136.486 56.8172 136.899 56.8859C137.512 57.0858 138.148 57.2084 138.791 57.2507C139.57 57.2922 140.339 57.4498 141.071 57.7181C141.633 57.8958 142.116 58.2613 142.44 58.7533C142.764 59.2453 142.909 59.8338 142.85 60.4199C142.85 62.5517 141.299 63.8399 138.449 63.8399C137.515 63.9468 136.571 63.7302 135.777 63.2261C134.982 62.7221 134.385 61.961 134.083 61.0697C134.063 61.0291 134.052 60.9845 134.051 60.9391C134.05 60.8938 134.06 60.8488 134.078 60.8075C134.097 60.7661 134.124 60.7293 134.158 60.6997C134.193 60.6702 134.233 60.6486 134.277 60.6365L134.779 60.4541C134.818 60.4379 134.861 60.4302 134.903 60.4313C134.946 60.4325 134.988 60.4425 135.026 60.4607C135.065 60.4789 135.099 60.505 135.127 60.5372C135.155 60.5694 135.176 60.6071 135.189 60.6479C135.444 61.2919 135.898 61.838 136.484 62.2069C137.07 62.5759 137.758 62.7485 138.449 62.6999C140.604 62.6999 141.664 61.9475 141.664 60.4199C141.684 60.0183 141.561 59.6227 141.317 59.3033C141.073 58.9839 140.723 58.7615 140.33 58.6757C139.741 58.4997 139.132 58.3926 138.518 58.3565L137.287 58.1969C136.901 58.1151 136.521 58.0123 136.147 57.8891C135.777 57.7775 135.433 57.5955 135.132 57.3533C134.83 57.0794 134.591 56.7424 134.434 56.3661C134.276 55.9898 134.203 55.5835 134.22 55.1759C134.3 53.1809 135.793 51.8813 138.427 51.8813Z" fill="#394149"/>
<path d="M148.995 59.679C149.043 60.4852 149.397 61.2424 149.985 61.7961C150.573 62.3498 151.35 62.6582 152.158 62.6582C152.966 62.6582 153.743 62.3498 154.331 61.7961C154.919 61.2424 155.273 60.4852 155.322 59.679V52.44C155.322 52.1892 155.401 52.1094 155.652 52.1094H156.177C156.427 52.1094 156.507 52.1892 156.507 52.44V59.6676C156.507 62.2554 154.98 63.8172 152.164 63.8172C149.348 63.8172 147.82 62.2554 147.82 59.6676V52.44C147.82 52.1892 147.9 52.1094 148.14 52.1094H148.675C148.915 52.1094 148.995 52.1892 148.995 52.44V59.679Z" fill="#394149"/>
<path d="M172.239 52.1094C172.49 52.1094 172.57 52.1892 172.57 52.44V63.2472C172.57 63.498 172.49 63.5778 172.239 63.5778H171.76C171.521 63.5778 171.441 63.498 171.441 63.2472V56.6694C171.441 55.7123 171.506 54.7563 171.635 53.808H171.566C171.21 54.6752 170.795 55.517 170.324 56.3274L167.873 60.648C167.843 60.7229 167.791 60.787 167.724 60.8318C167.657 60.8766 167.577 60.8999 167.497 60.8988H167.177C167.095 60.8992 167.015 60.8757 166.946 60.8311C166.877 60.7866 166.823 60.7229 166.79 60.648L164.305 56.2818C163.863 55.4829 163.482 54.6522 163.165 53.7966H163.096C163.213 54.7536 163.274 55.7167 163.279 56.6808V63.2472C163.279 63.498 163.199 63.5778 162.948 63.5778H162.503C162.253 63.5778 162.173 63.498 162.173 63.2472V52.44C162.173 52.1892 162.253 52.1094 162.503 52.1094H162.914C163.008 52.1006 163.102 52.1212 163.183 52.1681C163.265 52.2151 163.33 52.2861 163.37 52.3716L167.36 59.4624L171.327 52.44C171.452 52.2006 171.521 52.1664 171.772 52.1664L172.239 52.1094Z" fill="#394149"/>
<path d="M41.8914 61.047V69.2892C41.8914 69.6051 41.7659 69.9081 41.5425 70.1315C41.3191 70.3549 41.0161 70.4805 40.7001 70.4805C40.3842 70.4805 40.0811 70.3549 39.8577 70.1315C39.6343 69.9081 39.5088 69.6051 39.5088 69.2892V61.0584C39.8405 61.3006 40.2382 61.4358 40.6488 61.446C41.0964 61.4588 41.5349 61.3179 41.8914 61.047ZM52.0374 58.6644C51.7351 58.6644 51.4451 58.7845 51.2313 58.9983C51.0175 59.212 50.8974 59.502 50.8974 59.8044V61.2408C50.8974 61.5567 51.0229 61.8597 51.2463 62.0831C51.4697 62.3066 51.7728 62.4321 52.0887 62.4321C52.4047 62.4321 52.7077 62.3066 52.9311 62.0831C53.1545 61.8597 53.28 61.5567 53.28 61.2408V59.8614C53.2889 59.6979 53.2624 59.5344 53.2025 59.3821C53.1425 59.2298 53.0505 59.0921 52.9326 58.9786C52.8147 58.865 52.6737 58.7781 52.5192 58.7239C52.3648 58.6697 52.2004 58.6494 52.0374 58.6644ZM36.921 64.1706C36.5108 64.1583 36.1137 64.0233 35.781 63.783V72.048C35.781 72.3654 35.9071 72.6699 36.1316 72.8944C36.3561 73.1189 36.6605 73.245 36.978 73.245C37.2955 73.245 37.5999 73.1189 37.8244 72.8944C38.0489 72.6699 38.175 72.3654 38.175 72.048V63.84C37.8027 64.0806 37.3635 64.1964 36.921 64.1706ZM48.321 56.1906C48.1666 56.1828 48.0122 56.2066 47.8672 56.2604C47.7223 56.3142 47.5898 56.397 47.4778 56.5036C47.3658 56.6103 47.2767 56.7386 47.2159 56.8807C47.1551 57.0229 47.1238 57.1759 47.124 57.3306V63.6804C47.124 63.9978 47.2501 64.3023 47.4746 64.5268C47.6991 64.7512 48.0036 64.8774 48.321 64.8774C48.6385 64.8774 48.9429 64.7512 49.1674 64.5268C49.3919 64.3023 49.518 63.9978 49.518 63.6804V57.4104C49.5271 57.2458 49.5004 57.0813 49.4398 56.9281C49.3792 56.7749 49.2861 56.6366 49.1669 56.5228C49.0477 56.4091 48.9053 56.3225 48.7494 56.2691C48.5935 56.2156 48.4279 56.1966 48.264 56.2134L48.321 56.1906ZM44.5362 58.6302C44.1068 58.6272 43.6888 58.4919 43.3392 58.2426V66.5304C43.3392 66.8478 43.4653 67.1523 43.6898 67.3768C43.9143 67.6012 44.2187 67.7274 44.5362 67.7274C44.8537 67.7274 45.1581 67.6012 45.3826 67.3768C45.6071 67.1523 45.7332 66.8478 45.7332 66.5304V58.254C45.3715 58.5234 44.9301 58.6638 44.4792 58.653L44.5362 58.6302ZM34.3332 64.98V41.8266C34.3302 41.5443 34.216 41.2747 34.0153 41.0762C33.8147 40.8777 33.5439 40.7663 33.2616 40.7664H33.0108C32.7286 40.7663 32.4577 40.8777 32.2571 41.0762C32.0564 41.2747 31.9422 41.5443 31.9392 41.8266V64.98C31.9392 65.2642 32.0521 65.5367 32.2531 65.7377C32.454 65.9387 32.7266 66.0516 33.0108 66.0516H33.2616C33.5458 66.0516 33.8184 65.9387 34.0193 65.7377C34.2203 65.5367 34.3332 65.2642 34.3332 64.98ZM37.0464 63.2928H36.7956C36.5114 63.2928 36.2388 63.1799 36.0379 62.9789C35.8369 62.7779 35.724 62.5054 35.724 62.2212V44.5854C35.727 44.3031 35.8412 44.0335 36.0419 43.835C36.2425 43.6365 36.5134 43.5251 36.7956 43.5252H37.0464C37.3287 43.5251 37.5995 43.6365 37.8001 43.835C38.0008 44.0335 38.115 44.3031 38.118 44.5854V62.244C38.118 62.5282 38.0051 62.8007 37.8041 63.0017C37.6032 63.2027 37.3306 63.3156 37.0464 63.3156V63.2928ZM40.8198 60.5796H40.5576C40.2764 60.5796 40.0068 60.4679 39.8079 60.269C39.6091 60.0702 39.4974 59.8005 39.4974 59.5194V47.3214C39.4959 47.1812 39.5222 47.0421 39.5748 46.9121C39.6274 46.7822 39.7053 46.664 39.8039 46.5643C39.9025 46.4646 40.0199 46.3855 40.1492 46.3315C40.2786 46.2775 40.4174 46.2498 40.5576 46.2498H40.8198C41.102 46.2528 41.3717 46.367 41.5702 46.5676C41.7687 46.7683 41.88 47.0391 41.88 47.3214V59.5194C41.88 59.8005 41.7683 60.0702 41.5695 60.269C41.3707 60.4679 41.101 60.5796 40.8198 60.5796ZM44.5932 57.7866H44.3538C44.0716 57.7866 43.8007 57.6752 43.6001 57.4767C43.3994 57.2782 43.2852 57.0086 43.2822 56.7264V50.16C43.2729 50.0136 43.2936 49.8669 43.3433 49.7288C43.3929 49.5908 43.4704 49.4645 43.5708 49.3576C43.6713 49.2507 43.7926 49.1656 43.9273 49.1076C44.062 49.0495 44.2071 49.0197 44.3538 49.02H44.6046C44.8888 49.02 45.1614 49.1329 45.3623 49.3338C45.5633 49.5348 45.6762 49.8074 45.6762 50.0916V56.7036C45.6777 56.8452 45.6511 56.9858 45.5979 57.1171C45.5448 57.2485 45.4661 57.368 45.3664 57.4687C45.2667 57.5694 45.1481 57.6494 45.0173 57.7039C44.8866 57.7585 44.7463 57.7866 44.6046 57.7866H44.5932ZM48.378 55.3356H48.1272C47.843 55.3356 47.5704 55.2227 47.3695 55.0217C47.1685 54.8207 47.0556 54.5482 47.0556 54.264V52.5654C47.0586 52.2831 47.1728 52.0135 47.3735 51.815C47.5741 51.6165 47.845 51.5051 48.1272 51.5052H48.378C48.6603 51.5051 48.9311 51.6165 49.1317 51.815C49.3324 52.0135 49.4466 52.2831 49.4496 52.5654V54.264C49.4496 54.5462 49.3383 54.8171 49.1398 55.0177C48.9413 55.2183 48.6716 55.3326 48.3894 55.3356H48.378Z" fill="#394149"/>
</svg>
