<svg width="204" height="114" viewBox="0 0 204 114" fill="none" xmlns="http://www.w3.org/2000/svg">
<path d="M63.6648 48.165H67.0848V64.638H63.6648V48.165Z" fill="#394149"/>
<path d="M68.9999 58.9949C69 57.8097 69.3518 56.6513 70.011 55.6663C70.6702 54.6813 71.6069 53.9143 72.7025 53.4623C73.7981 53.0103 75.0033 52.8938 76.1652 53.1275C77.3271 53.3613 78.3934 53.9347 79.2291 54.7751C80.0647 55.6156 80.632 56.6852 80.8591 57.8484C81.0861 59.0116 80.9627 60.2161 80.5045 61.3091C80.0462 62.4021 79.2738 63.3344 78.2851 63.9879C77.2964 64.6414 76.1359 64.9867 74.9507 64.9799C74.1647 64.9861 73.3853 64.8352 72.6583 64.5362C71.9313 64.2371 71.2713 63.796 70.717 63.2385C70.1628 62.6811 69.7254 62.0186 69.4305 61.2899C69.1357 60.5612 68.9893 59.7809 68.9999 58.9949ZM77.5727 58.9949C77.5593 58.484 77.3955 57.9883 77.1018 57.57C76.8082 57.1516 76.3977 56.8292 75.9217 56.6429C75.4458 56.4566 74.9254 56.4148 74.4258 56.5227C73.9262 56.6306 73.4695 56.8833 73.1128 57.2494C72.7561 57.6155 72.5153 58.0786 72.4204 58.5809C72.3255 59.0831 72.3808 59.6022 72.5794 60.0731C72.778 60.5441 73.111 60.9461 73.5369 61.2288C73.9627 61.5115 74.4624 61.6623 74.9735 61.6625C75.3215 61.6693 75.6672 61.6042 75.9889 61.4714C76.3106 61.3385 76.6014 61.1407 76.8432 60.8904C77.085 60.64 77.2726 60.3424 77.3942 60.0163C77.5158 59.6902 77.5688 59.3425 77.5499 58.9949H77.5727Z" fill="#394149"/>
<path d="M94.4334 53.352V64.0794C94.4334 67.8642 91.4694 69.4716 88.4712 69.4716C87.4136 69.5584 86.3529 69.3483 85.4083 68.8649C84.4637 68.3815 83.6728 67.6441 83.1246 66.7356L86.0088 65.0712C86.2425 65.5424 86.6143 65.9312 87.0746 66.1858C87.5348 66.4404 88.0618 66.5486 88.5852 66.4962C88.9186 66.5373 89.257 66.5041 89.5761 66.3992C89.8952 66.2943 90.1872 66.1201 90.4312 65.8892C90.6752 65.6583 90.8651 65.3763 90.9875 65.0635C91.1098 64.7506 91.1614 64.4145 91.1388 64.0794V63.042C90.7408 63.5245 90.2358 63.9076 89.6639 64.1609C89.092 64.4142 88.4689 64.5307 87.8442 64.5012C86.3324 64.5012 84.8826 63.9006 83.8137 62.8317C82.7447 61.7627 82.1442 60.3129 82.1442 58.8012C82.1442 57.2894 82.7447 55.8396 83.8137 54.7707C84.8826 53.7017 86.3324 53.1012 87.8442 53.1012C88.4689 53.0716 89.092 53.1881 89.6639 53.4414C90.2358 53.6947 90.7408 54.0778 91.1388 54.5604V53.4204L94.4334 53.352ZM91.1388 58.767C91.1615 58.2216 91.0206 57.6818 90.7341 57.2171C90.4476 56.7525 90.0287 56.3841 89.5312 56.1594C89.0337 55.9348 88.4803 55.8641 87.9423 55.9564C87.4043 56.0487 86.9062 56.2999 86.5121 56.6776C86.118 57.0553 85.8458 57.5423 85.7307 58.0759C85.6156 58.6095 85.6627 59.1653 85.866 59.6719C86.0693 60.1786 86.4195 60.6128 86.8715 60.9188C87.3236 61.2247 87.8569 61.3885 88.4028 61.389C88.759 61.4146 89.1166 61.3653 89.4525 61.2442C89.7885 61.123 90.0953 60.9327 90.3531 60.6856C90.611 60.4385 90.8141 60.1401 90.9494 59.8096C91.0848 59.4791 91.1493 59.1239 91.1388 58.767Z" fill="#394149"/>
<path d="M96.36 58.995C96.36 57.8108 96.7113 56.6532 97.3695 55.6687C98.0276 54.6843 98.963 53.9172 100.057 53.4645C101.152 53.0118 102.356 52.894 103.517 53.1258C104.678 53.3577 105.745 53.9289 106.581 54.767C107.418 55.6052 107.987 56.6727 108.216 57.8344C108.446 58.9961 108.326 60.1999 107.871 61.2933C107.416 62.3867 106.648 63.3206 105.662 63.9769C104.676 64.6332 103.518 64.9823 102.334 64.98C101.546 64.9876 100.765 64.838 100.036 64.5398C99.307 64.2415 98.6449 63.8008 98.0886 63.2434C97.5322 62.6859 97.0927 62.023 96.7959 61.2935C96.4991 60.564 96.3509 59.7825 96.36 58.995ZM104.933 58.995C104.919 58.4836 104.755 57.9875 104.461 57.5689C104.167 57.1503 103.756 56.8279 103.279 56.642C102.803 56.456 102.282 56.4149 101.782 56.5237C101.282 56.6325 100.825 56.8864 100.469 57.2536C100.113 57.6208 99.8728 58.085 99.7792 58.588C99.6856 59.091 99.7425 59.6104 99.9428 60.0811C100.143 60.5519 100.478 60.9531 100.905 61.2344C101.333 61.5157 101.833 61.6647 102.345 61.6626C102.693 61.6694 103.039 61.6043 103.36 61.4715C103.682 61.3386 103.973 61.1408 104.215 60.8904C104.457 60.6401 104.644 60.3425 104.766 60.0164C104.887 59.6903 104.94 59.3426 104.921 58.995H104.933Z" fill="#394149"/>
<path d="M109.892 50.331C109.892 49.9296 110.011 49.5373 110.234 49.2036C110.457 48.8699 110.774 48.6098 111.145 48.4562C111.515 48.3026 111.923 48.2625 112.317 48.3407C112.711 48.419 113.072 48.6123 113.356 48.8961C113.64 49.1799 113.833 49.5415 113.911 49.9351C113.99 50.3287 113.949 50.7367 113.796 51.1075C113.642 51.4783 113.382 51.7952 113.048 52.0182C112.715 52.2411 112.322 52.3602 111.921 52.3602C111.385 52.3542 110.872 52.1385 110.493 51.7593C110.113 51.38 109.898 50.8673 109.892 50.331ZM110.222 53.352H113.642V64.638H110.222V53.352Z" fill="#394149"/>
<path d="M128.28 58.9951C128.318 59.7457 128.208 60.4964 127.955 61.2042C127.702 61.9119 127.312 62.5626 126.806 63.1188C126.301 63.6751 125.69 64.1259 125.01 64.4453C124.33 64.7648 123.593 64.9465 122.842 64.9801C122.205 65.0225 121.567 64.9205 120.974 64.6816C120.382 64.4428 119.852 64.0733 119.422 63.6007V69.1753H116.002V53.3521H119.422V54.4123C119.852 53.9411 120.383 53.5733 120.975 53.3364C121.568 53.0995 122.206 52.9997 122.842 53.0443C123.59 53.078 124.324 53.2586 125.002 53.5759C125.68 53.8932 126.289 54.3409 126.794 54.8935C127.299 55.4461 127.69 56.0927 127.945 56.7965C128.2 57.5002 128.314 58.2473 128.28 58.9951ZM124.86 58.9951C124.847 58.4656 124.677 57.9519 124.373 57.5183C124.069 57.0848 123.643 56.7506 123.15 56.5578C122.657 56.3649 122.117 56.322 121.6 56.4343C121.082 56.5467 120.609 56.8093 120.24 57.1892C119.871 57.5692 119.623 58.0496 119.526 58.5703C119.429 59.091 119.487 59.6287 119.695 60.1162C119.902 60.6036 120.248 61.019 120.691 61.3103C121.133 61.6017 121.651 61.756 122.181 61.7539C122.544 61.7693 122.906 61.7078 123.243 61.5735C123.58 61.4393 123.886 61.2352 124.139 60.9747C124.392 60.7142 124.587 60.4032 124.711 60.062C124.835 59.7209 124.886 59.3573 124.86 58.9951Z" fill="#394149"/>
<path d="M138.688 61.2523C138.688 63.8515 136.408 64.9573 133.991 64.9573C133.006 65.046 132.016 64.837 131.15 64.3574C130.285 63.8778 129.583 63.1496 129.135 62.2669L132.076 60.6025C132.193 61.0092 132.445 61.3637 132.792 61.6065C133.138 61.8493 133.558 61.9657 133.98 61.9363C134.789 61.9363 135.2 61.6855 135.2 61.2295C135.2 59.9869 129.648 60.6481 129.648 56.7379C129.648 54.2755 131.723 53.0443 134.071 53.0443C134.964 53.0043 135.851 53.2068 136.638 53.6303C137.424 54.0538 138.082 54.6825 138.54 55.4497L135.599 57.0001C135.469 56.706 135.257 56.4558 134.987 56.2798C134.718 56.1038 134.404 56.0095 134.083 56.0083C133.49 56.0083 133.136 56.2363 133.136 56.6353C133.136 57.9349 138.688 57.0799 138.688 61.2523Z" fill="#394149"/>
<path d="M151.08 53.3521V64.6381H147.66V63.5779C147.272 64.0471 146.778 64.4185 146.22 64.6621C145.661 64.9057 145.053 65.0146 144.445 64.9801C142.165 64.9801 140.216 63.3499 140.216 60.3061V53.3521H143.636V59.7931C143.609 60.0623 143.641 60.3342 143.729 60.59C143.818 60.8457 143.961 61.0792 144.148 61.2743C144.336 61.4694 144.563 61.6215 144.815 61.7201C145.067 61.8186 145.338 61.8612 145.608 61.8451C146.839 61.8451 147.706 61.1155 147.706 59.5651V53.3521H151.08Z" fill="#394149"/>
<path d="M170.46 57.7067V64.6379H167.04V58.0031C167.04 56.8631 166.504 56.1563 165.421 56.1563C164.338 56.1563 163.654 56.9429 163.654 58.2767V64.6379H160.234V58.0031C160.234 56.8631 159.698 56.1563 158.615 56.1563C157.532 56.1563 156.848 56.9429 156.848 58.2767V64.6379H153.428V53.3519H156.848V54.3893C157.202 53.9309 157.665 53.568 158.194 53.3331C158.724 53.0983 159.303 52.9989 159.881 53.0441C160.459 53.0139 161.035 53.1347 161.553 53.3945C162.071 53.6543 162.512 54.0443 162.833 54.5261C163.209 54.0227 163.706 53.6227 164.278 53.3636C164.85 53.1044 165.479 52.9945 166.105 53.0441C168.773 53.0441 170.46 54.8909 170.46 57.7067Z" fill="#394149"/>
<path d="M43.293 45.201V40.356H28.017V73.644H43.293V68.799C40.1637 68.799 37.1626 67.5559 34.9498 65.3431C32.7371 63.1304 31.494 60.1292 31.494 57C31.494 53.8707 32.7371 50.8695 34.9498 48.6568C37.1626 46.4441 40.1637 45.201 43.293 45.201Z" fill="#394149"/>
<path d="M43.293 45.2009V68.7989C46.4223 68.7989 49.4234 67.5558 51.6361 65.3431C53.8489 63.1303 55.092 60.1292 55.092 56.9999C55.092 53.8706 53.8489 50.8695 51.6361 48.6568C49.4234 46.444 46.4223 45.2009 43.293 45.2009Z" fill="#394149"/>
<path d="M173.333 53.2836C174.718 53.2836 175.841 52.1607 175.841 50.7756C175.841 49.3904 174.718 48.2676 173.333 48.2676C171.948 48.2676 170.825 49.3904 170.825 50.7756C170.825 52.1607 171.948 53.2836 173.333 53.2836Z" fill="#394149"/>
</svg>
