<svg width="204" height="114" viewBox="0 0 204 114" fill="none" xmlns="http://www.w3.org/2000/svg">
<path d="M53.5422 47.1846H55.8222V63.0534H62.6622V65.3334H53.5422V47.1846ZM69.7644 47.1846C71.1173 47.1846 72.4397 47.5857 73.5645 48.3373C74.6894 49.0889 75.5661 50.1572 76.0838 51.407C76.6015 52.6569 76.7369 54.0322 76.473 55.359C76.2091 56.6858 75.5576 57.9046 74.601 58.8612C73.6445 59.8178 72.4257 60.4692 71.0989 60.7332C69.772 60.9971 68.3967 60.8616 67.1469 60.3439C65.897 59.8262 64.8288 58.9495 64.0772 57.8247C63.3256 56.6999 62.9244 55.3774 62.9244 54.0246C62.9244 53.1263 63.1014 52.2369 63.4451 51.407C63.7888 50.5772 64.2927 49.8231 64.9278 49.188C65.563 48.5528 66.317 48.049 67.1469 47.7052C67.9767 47.3615 68.8662 47.1846 69.7644 47.1846ZM69.7644 58.5846C70.6663 58.5846 71.5479 58.3171 72.2978 57.8161C73.0477 57.315 73.6322 56.6028 73.9773 55.7696C74.3225 54.9364 74.4128 54.0195 74.2368 53.135C74.0609 52.2504 73.6266 51.4379 72.9888 50.8002C72.3511 50.1624 71.5386 49.7281 70.654 49.5522C69.7695 49.3762 68.8526 49.4666 68.0194 49.8117C67.1862 50.1568 66.474 50.7413 65.9729 51.4912C65.4719 52.2411 65.2044 53.1227 65.2044 54.0246C65.2105 55.23 65.6936 56.384 66.5481 57.2343C67.4026 58.0845 68.559 58.5618 69.7644 58.5618V58.5846ZM65.2044 63.0762H74.3244V65.3562H65.2044V63.0762ZM94.3884 65.3562H92.1084V63.726C90.6381 64.7552 88.8872 65.3083 87.0924 65.3106C85.562 65.3208 84.0536 64.9457 82.7062 64.2199C81.3587 63.494 80.2157 62.4408 79.3822 61.1571C78.5488 59.8735 78.0518 58.4007 77.9371 56.8745C77.8223 55.3484 78.0935 53.8178 78.7256 52.424C79.3578 51.0302 80.3305 49.8178 81.5543 48.8987C82.778 47.9795 84.2134 47.3831 85.7281 47.1644C87.2429 46.9457 88.7884 47.1117 90.2221 47.6472C91.6559 48.1826 92.9318 49.0703 93.9324 50.2284L92.2566 51.7218C91.4956 50.8709 90.5337 50.2241 89.4587 49.8402C88.3836 49.4563 87.2296 49.3476 86.1017 49.5239C84.9739 49.7003 83.9081 50.1561 83.0016 50.8498C82.095 51.5435 81.3765 52.4531 80.9116 53.4957C80.4466 54.5382 80.2499 55.6806 80.3395 56.8186C80.4291 57.9566 80.8021 59.0541 81.4245 60.0111C82.0469 60.968 82.8988 61.754 83.9028 62.2973C84.9067 62.8407 86.0307 63.1241 87.1722 63.1218C88.1196 63.1237 89.0562 62.921 89.918 62.5275C90.7798 62.134 91.5464 61.559 92.1654 60.8418H86.0094V58.5618H94.4112L94.3884 65.3562ZM102.779 47.2302C104.132 47.2302 105.454 47.6313 106.579 48.3829C107.704 49.1345 108.58 50.2028 109.098 51.4526C109.616 52.7025 109.751 54.0778 109.487 55.4046C109.223 56.7314 108.572 57.9502 107.615 58.9068C106.659 59.8634 105.44 60.5148 104.113 60.7788C102.786 61.0427 101.411 60.9072 100.161 60.3895C98.9114 59.8718 97.8432 58.9951 97.0916 57.8703C96.34 56.7454 95.9388 55.423 95.9388 54.0702C95.9328 53.1662 96.106 52.27 96.4485 51.4333C96.791 50.5967 97.2959 49.8362 97.9341 49.196C98.5722 48.5557 99.331 48.0482 100.166 47.703C101.002 47.3577 101.898 47.1815 102.802 47.1846L102.779 47.2302ZM102.779 58.6302C103.681 58.6302 104.562 58.3627 105.312 57.8617C106.062 57.3606 106.647 56.6484 106.992 55.8152C107.337 54.982 107.427 54.0651 107.251 53.1806C107.075 52.296 106.641 51.4835 106.003 50.8458C105.366 50.208 104.553 49.7737 103.668 49.5978C102.784 49.4218 101.867 49.5122 101.034 49.8573C100.201 50.2024 99.4884 50.7869 98.9873 51.5368C98.4863 52.2867 98.2188 53.1683 98.2188 54.0702C98.2368 55.2716 98.7283 56.4174 99.5865 57.2585C100.445 58.0996 101.6 58.5679 102.802 58.5618L102.779 58.6302ZM98.2188 63.1218H107.339V65.4018H98.2188V63.1218ZM112.047 47.1846H114.327V65.3106H112.047V47.1846ZM117.485 47.1846H119.765C119.882 47.1721 120.001 47.1721 120.118 47.1846C121.073 47.081 122.039 47.1797 122.953 47.4742C123.868 47.7687 124.709 48.2524 125.424 48.8939C126.139 49.5354 126.711 50.3203 127.102 51.1974C127.494 52.0745 127.696 53.0242 127.696 53.9847C127.696 54.9452 127.494 55.8949 127.102 56.772C126.711 57.6491 126.139 58.4339 125.424 59.0754C124.709 59.7169 123.868 60.2007 122.953 60.4952C122.039 60.7897 121.073 60.8884 120.118 60.7848H119.765V65.3448H117.485V47.1846ZM119.765 49.4646V58.482H120.118C120.762 58.5677 121.417 58.5149 122.039 58.327C122.661 58.1391 123.235 57.8205 123.724 57.3925C124.213 56.9645 124.605 56.437 124.873 55.8454C125.141 55.2537 125.28 54.6115 125.28 53.9619C125.28 53.3122 125.141 52.67 124.873 52.0784C124.605 51.4867 124.213 50.9592 123.724 50.5313C123.235 50.1033 122.661 49.7847 122.039 49.5968C121.417 49.4089 120.762 49.356 120.118 49.4418C119.994 49.4547 119.872 49.4815 119.753 49.5216L119.765 49.4646ZM136.192 48.4956L134.505 49.8294C134.214 49.5252 133.842 49.3105 133.433 49.2104C133.024 49.1103 132.595 49.1289 132.197 49.2642C131.798 49.3995 131.446 49.6458 131.183 49.9741C130.919 50.3024 130.755 50.6991 130.709 51.1176V51.3C130.709 52.3032 131.404 52.9758 132.761 53.067C137.982 53.3862 140.376 55.8372 140.376 59.0748V59.28C140.241 60.5614 139.741 61.7771 138.935 62.7825C138.13 63.788 137.052 64.5408 135.831 64.9515C134.61 65.3622 133.296 65.4134 132.046 65.0992C130.797 64.7849 129.664 64.1184 128.782 63.1788L130.526 61.8336C130.932 62.2687 131.428 62.6103 131.979 62.8347C132.531 63.0591 133.124 63.1609 133.718 63.1332C134.816 63.1911 135.894 62.8225 136.727 62.1045C137.56 61.3865 138.083 60.3745 138.187 59.28V59.1204C138.187 56.0766 135.2 55.518 132.613 55.2672C130.219 55.0392 128.497 53.5458 128.497 51.3912V51.3C128.582 50.1782 129.094 49.1317 129.927 48.3765C130.761 47.6213 131.853 47.215 132.977 47.2416C133.573 47.224 134.166 47.3316 134.718 47.5574C135.27 47.7832 135.768 48.1222 136.181 48.5526L136.192 48.4956ZM149.302 62.9964C152.141 62.9964 154.387 59.9298 154.387 56.1564V47.0364H156.667V56.1564C156.667 61.1724 153.383 65.2194 149.348 65.2194C145.312 65.2194 142.029 61.1724 142.029 56.1564V47.0364H144.309V56.1564C144.218 59.9868 146.464 63.0534 149.291 63.0534L149.302 62.9964ZM174.166 65.2764H171.886V53.9904L166.63 60.8304L161.375 53.9904V65.3106H159.095V47.1846L166.619 57.0912L174.143 47.1846L174.166 65.2764Z" fill="#394149"/>
<path d="M42.5983 44.4599C42.5983 42.8151 41.9449 41.2377 40.7819 40.0747C39.6188 38.9117 38.0414 38.2583 36.3967 38.2583C34.7519 38.2583 33.1745 38.9117 32.0115 40.0747C30.8485 41.2377 30.1951 42.8151 30.1951 44.4599V63.2129L35.3023 66.8723V75.7871H37.4911V66.8723L42.5983 63.2129V44.4599ZM40.4095 54.9479L37.4911 57.8663V55.1303L40.4095 52.2119V54.9479ZM32.4295 52.2119L35.3479 55.1303V57.8663L32.4295 54.9479V52.2119ZM40.4095 49.1111L36.3967 53.1239L32.3839 49.0199V46.2839L36.3967 50.2967L40.4095 46.2839V49.1111ZM36.3967 40.4471C37.2792 40.451 38.1361 40.7441 38.8362 41.2815C39.5362 41.8189 40.0408 42.571 40.2727 43.4225L36.3967 47.2871L32.5207 43.4225C32.744 42.5625 33.245 41.8002 33.9458 41.254C34.6466 40.7078 35.5081 40.4081 36.3967 40.4015V40.4471ZM32.3839 62.1071V58.0031L35.3023 60.9215V64.1819L32.3839 62.1071ZM37.4911 64.1933V60.9215L40.4095 58.0031V62.0957L37.4911 64.1933Z" fill="#394149"/>
</svg>
