<svg width="203" height="114" viewBox="0 0 203 114" fill="none" xmlns="http://www.w3.org/2000/svg">
<path d="M70.1213 50.4565H73.7807V65.2765H70.1213V50.4565ZM75.2399 59.7019C75.2399 56.0311 77.5199 53.8309 80.9399 53.8309C84.3599 53.8309 86.6399 56.0311 86.6399 59.7019C86.6399 63.3727 84.4397 65.5957 80.9399 65.5957C77.4401 65.5957 75.2399 63.4525 75.2399 59.7019ZM83.0147 59.7019C83.0147 57.6841 82.2281 56.4985 80.9741 56.4985C79.7201 56.4985 78.9449 57.6385 78.9449 59.7019C78.9449 61.7653 79.7201 62.8939 80.9741 62.8939C82.2281 62.8939 83.0375 61.7653 83.0375 59.7133L83.0147 59.7019ZM88.0991 66.0403H91.6331C91.794 66.4208 92.075 66.7381 92.4332 66.944C92.7913 67.1498 93.207 67.2328 93.6167 67.1803C95.0189 67.1803 95.7485 66.4279 95.7485 65.3107V63.2587H95.7599C95.458 63.8976 94.9696 64.4302 94.3592 64.7863C93.7487 65.1424 93.0448 65.3053 92.3399 65.2537C89.6609 65.2537 87.8825 63.2131 87.8825 59.7019C87.8825 56.1907 89.5811 54.0019 92.4425 54.0019C93.1654 53.9632 93.8825 54.1497 94.495 54.5355C95.1075 54.9214 95.5853 55.4877 95.8625 56.1565H95.7599V54.0931H99.3851V65.1967C99.3851 67.8757 97.0139 69.5515 93.5255 69.5515C90.3563 69.5401 88.3271 68.0923 88.1219 66.0517L88.0991 66.0403ZM95.7599 59.7019C95.7599 57.9121 94.9391 56.7835 93.6395 56.7835C92.3399 56.7835 91.5419 57.9235 91.5419 59.7019C91.5419 61.4803 92.3285 62.5291 93.6395 62.5291C94.9505 62.5291 95.7599 61.5601 95.7599 59.7019ZM100.833 59.7019C100.833 56.0311 103.113 53.8309 106.533 53.8309C109.953 53.8309 112.233 56.0311 112.233 59.7019C112.233 63.3727 110.021 65.5957 106.533 65.5957C103.045 65.5957 100.856 63.4525 100.856 59.7019H100.833ZM108.608 59.7019C108.608 57.6841 107.81 56.4985 106.567 56.4985C105.325 56.4985 104.538 57.6385 104.538 59.7019C104.538 61.7653 105.313 62.8939 106.567 62.8939C107.821 62.8939 108.631 61.7653 108.631 59.7133L108.608 59.7019ZM113.715 51.3913C113.699 51.0185 113.795 50.6495 113.99 50.3318C114.186 50.014 114.472 49.762 114.812 49.6082C115.152 49.4544 115.53 49.4058 115.898 49.4686C116.266 49.5315 116.606 49.703 116.876 49.961C117.145 50.219 117.331 50.5517 117.41 50.9164C117.489 51.2811 117.457 51.661 117.318 52.0073C117.179 52.3536 116.94 52.6504 116.631 52.8596C116.322 53.0688 115.958 53.1808 115.585 53.1811C115.346 53.1872 115.109 53.1458 114.887 53.0594C114.664 52.973 114.461 52.8434 114.289 52.6779C114.118 52.5125 113.98 52.3146 113.886 52.0956C113.791 51.8767 113.741 51.6412 113.738 51.4027L113.715 51.3913ZM113.715 54.0817H117.42V65.3221H113.772L113.715 54.0817ZM130.747 59.7019C130.747 63.3613 129.105 65.4817 126.312 65.4817C125.597 65.5258 124.886 65.3494 124.274 64.9763C123.662 64.6032 123.18 64.0515 122.892 63.3955H122.824V68.9359H119.164V54.1159H122.801V56.1223H122.869C123.147 55.4534 123.625 54.8866 124.237 54.499C124.849 54.1114 125.566 53.9219 126.289 53.9563C129.162 53.9335 130.815 56.0425 130.815 59.7133L130.747 59.7019ZM127.019 59.7019C127.019 57.9235 126.187 56.7721 124.898 56.7721C123.61 56.7721 122.801 57.9121 122.789 59.7019C122.778 61.4917 123.61 62.6203 124.898 62.6203C126.187 62.6203 127.087 61.5601 127.087 59.7133L127.019 59.7019ZM136.994 53.8195C140.06 53.8195 141.964 55.2673 141.987 57.5929H138.647C138.647 56.7835 137.974 56.2819 136.971 56.2819C135.968 56.2819 135.489 56.6695 135.489 57.2509C135.489 57.8323 135.911 58.0147 136.754 58.1857L139.103 58.6645C141.383 59.1433 142.295 60.0553 142.295 61.7539C142.295 64.0339 140.186 65.5843 137.051 65.5843C133.916 65.5843 131.875 64.0795 131.727 61.7881H135.272C135.375 62.6203 136.036 63.1105 137.108 63.1105C138.179 63.1105 138.681 62.7685 138.681 62.1643C138.681 61.5601 138.339 61.4575 137.461 61.2751L135.341 60.8305C133.141 60.3631 131.989 59.2117 131.989 57.4903C132.058 55.2559 133.973 53.8309 137.062 53.8309L136.994 53.8195ZM154.55 65.3107H151.004V63.2017H150.936C150.737 63.9051 150.305 64.52 149.71 64.9448C149.116 65.3696 148.394 65.5791 147.664 65.5387C147.113 65.5566 146.565 65.4578 146.054 65.2488C145.544 65.0398 145.084 64.7253 144.704 64.3259C144.324 63.9265 144.033 63.4513 143.849 62.9314C143.666 62.4115 143.595 61.8587 143.64 61.3093V54.0931H147.299V60.5227C147.299 61.8451 147.995 62.5633 149.135 62.5633C149.402 62.5613 149.666 62.5019 149.909 62.3892C150.151 62.2764 150.367 62.113 150.541 61.9098C150.715 61.7067 150.843 61.4686 150.917 61.2116C150.991 60.9546 151.009 60.6847 150.97 60.4201V54.0931H154.618L154.55 65.3107ZM156.317 54.0817H159.874V56.2477H159.953C160.15 55.5538 160.571 54.9447 161.151 54.5156C161.73 54.0866 162.436 53.8618 163.157 53.8765C163.881 53.8136 164.602 54.0229 165.179 54.4635C165.757 54.9041 166.15 55.5444 166.28 56.2591H166.44C166.668 55.5406 167.127 54.9175 167.745 54.4866C168.364 54.0557 169.107 53.8412 169.86 53.8765C170.36 53.8574 170.859 53.9443 171.324 54.1314C171.788 54.3184 172.208 54.6014 172.556 54.962C172.903 55.3225 173.171 55.7523 173.341 56.2234C173.511 56.6944 173.579 57.1961 173.542 57.6955V65.3221H169.86V58.6303C169.86 57.4903 169.324 56.8519 168.287 56.8519C168.057 56.8481 167.828 56.8941 167.618 56.9868C167.407 57.0795 167.219 57.2166 167.066 57.3888C166.914 57.5609 166.8 57.7641 166.733 57.9843C166.666 58.2045 166.648 58.4365 166.679 58.6645V65.3221H163.191V58.5961C163.191 57.4561 162.632 56.8519 161.629 56.8519C161.397 56.85 161.166 56.8979 160.954 56.9924C160.742 57.0868 160.552 57.2256 160.397 57.3995C160.243 57.5733 160.128 57.7782 160.059 58.0003C159.99 58.2224 159.97 58.4566 159.999 58.6873V65.3221H156.34L156.317 54.0817Z" fill="#394149"/>
<path d="M62.8824 51.4254C62.8825 49.1564 62.1973 46.9403 60.9166 45.0674C59.6359 43.1944 57.8194 41.7519 55.705 40.9288C53.5906 40.1058 51.2769 39.9405 49.067 40.4546C46.8571 40.9687 44.8539 42.1383 43.32 43.8102H29.0928V73.8378H59.1318V59.8044C60.3108 58.7498 61.2542 57.4585 61.9005 56.0148C62.5467 54.571 62.8813 53.0072 62.8824 51.4254ZM57.1026 51.4254C57.1048 52.5126 56.7845 53.5761 56.1821 54.4812C55.5797 55.3863 54.7223 56.0924 53.7185 56.51C52.7146 56.9277 51.6094 57.0381 50.5428 56.8274C49.4762 56.6166 48.496 56.0942 47.7264 55.3262C46.9568 54.5582 46.4323 53.5791 46.2194 52.513C46.0065 51.4468 46.1146 50.3414 46.5302 49.3366C46.9457 48.3319 47.65 47.4731 48.5538 46.8688C49.4577 46.2645 50.5205 45.942 51.6078 45.942C53.0631 45.942 54.459 46.5193 55.4892 47.5473C56.5193 48.5753 57.0996 49.97 57.1026 51.4254ZM53.352 68.058H34.8726V49.59H40.5042C40.3954 50.1958 40.3382 50.8098 40.3332 51.4254C40.3362 54.4147 41.525 57.2806 43.6388 59.3944C45.7525 61.5081 48.6185 62.697 51.6078 62.7C52.1922 62.6969 52.7754 62.6473 53.352 62.5518V68.058Z" fill="#394149"/>
</svg>
