<svg width="204" height="114" viewBox="0 0 204 114" fill="none" xmlns="http://www.w3.org/2000/svg">
<path d="M78.1432 65.4247C77.4651 65.4614 76.7944 65.2686 76.2394 64.8775C76.0074 64.7055 75.8208 64.4797 75.6957 64.2195C75.5706 63.9593 75.5107 63.6726 75.5212 63.3841V52.8162C75.5156 52.7715 75.5204 52.7261 75.535 52.6835C75.5497 52.6408 75.5739 52.6021 75.6057 52.5702C75.6376 52.5383 75.6763 52.5141 75.719 52.4995C75.7616 52.4848 75.807 52.4801 75.8518 52.4856H77.767C77.9836 52.4856 78.0862 52.5996 78.0862 52.8162V62.5633C78.0862 62.9965 78.28 63.2131 78.679 63.2131C78.8481 63.22 79.0173 63.2008 79.1806 63.1561C79.4086 63.1561 79.534 63.2245 79.5454 63.4297L79.7164 64.8547C79.7246 64.8962 79.7238 64.939 79.7141 64.9802C79.7043 65.0215 79.6859 65.0601 79.66 65.0936C79.634 65.1271 79.6012 65.1546 79.5638 65.1744C79.5263 65.1941 79.485 65.2056 79.4428 65.2081C79.0233 65.3466 78.5849 65.4197 78.1432 65.4247Z" fill="#394149"/>
<path d="M88.9162 64.2048C87.9539 64.9999 86.7445 65.4348 85.4962 65.4348C84.2479 65.4348 83.0386 64.9999 82.0762 64.2048C81.2304 63.3509 80.7559 62.1976 80.7559 60.9957C80.7559 59.7938 81.2304 58.6405 82.0762 57.7866C83.0404 56.9956 84.249 56.5632 85.4962 56.5632C86.7434 56.5632 87.952 56.9956 88.9162 57.7866C89.7425 58.6483 90.2039 59.7961 90.2039 60.99C90.2039 62.1839 89.7425 63.3316 88.9162 64.1934V64.2048ZM83.8774 62.7C84.324 63.1045 84.905 63.3286 85.5076 63.3286C86.1102 63.3286 86.6912 63.1045 87.1378 62.7C87.542 62.2352 87.7646 61.6401 87.7646 61.0242C87.7646 60.4083 87.542 59.8131 87.1378 59.3484C86.6912 58.9438 86.1102 58.7198 85.5076 58.7198C84.905 58.7198 84.324 58.9438 83.8774 59.3484C83.4732 59.8131 83.2506 60.4083 83.2506 61.0242C83.2506 61.6401 83.4732 62.2352 83.8774 62.7Z" fill="#394149"/>
<path d="M100.749 56.8517C100.966 56.8517 101.069 56.9657 101.069 57.1823V65.3561C101.089 65.9078 100.985 66.457 100.766 66.9637C100.548 67.4705 100.218 67.9222 99.8032 68.2859C98.8814 69.0719 97.696 69.4792 96.4858 69.4259C95.3927 69.4643 94.3142 69.1658 93.3964 68.5709C93.0045 68.3135 92.6697 67.9783 92.4128 67.5861C92.1559 67.1939 91.9823 66.753 91.903 66.2909C91.903 66.0629 91.903 65.9603 92.2108 65.9603H94.126C94.2073 65.9631 94.2861 65.9893 94.3529 66.0358C94.4196 66.0823 94.4715 66.1472 94.5022 66.2225C94.6264 66.5687 94.874 66.8569 95.1976 67.0319C95.5919 67.2353 96.0308 67.3372 96.4744 67.3283C96.7421 67.343 97.01 67.3041 97.2625 67.2141C97.515 67.1241 97.747 66.9846 97.945 66.8039C98.1259 66.6148 98.2666 66.3911 98.3587 66.1462C98.4508 65.9013 98.4923 65.6403 98.4808 65.3789V64.6607C97.7951 65.1651 96.9605 65.4259 96.1096 65.4017C95.5141 65.4234 94.9203 65.3244 94.364 65.1109C93.8076 64.8974 93.3001 64.5736 92.872 64.1591C92.0501 63.3088 91.5907 62.1725 91.5907 60.9899C91.5907 59.8073 92.0501 58.671 92.872 57.8207C93.3022 57.4098 93.8103 57.0892 94.3663 56.8778C94.9224 56.6663 95.5151 56.5683 96.1096 56.5895C96.9851 56.5664 97.8421 56.844 98.5378 57.3761V57.1937C98.5326 57.15 98.5371 57.1057 98.5512 57.064C98.5652 57.0223 98.5883 56.9842 98.6189 56.9526C98.6494 56.9209 98.6867 56.8965 98.7279 56.881C98.769 56.8655 98.8132 56.8594 98.857 56.8631L100.749 56.8517ZM96.3262 63.3725C96.6199 63.3816 96.912 63.3261 97.1819 63.2098C97.4518 63.0936 97.6928 62.9195 97.888 62.6999C98.267 62.2104 98.4727 61.6089 98.4727 60.9899C98.4727 60.3709 98.267 59.7694 97.888 59.2799C97.6935 59.0632 97.4539 58.8918 97.1861 58.7775C96.9182 58.6633 96.6286 58.6091 96.3376 58.6187C96.0405 58.6094 95.745 58.6647 95.4714 58.7808C95.1978 58.8969 94.9527 59.0711 94.753 59.2913C94.3331 59.7595 94.1123 60.3729 94.1374 61.0013C94.1168 61.6235 94.3327 62.2304 94.7416 62.6999C94.9417 62.9195 95.1869 63.0933 95.4604 63.2093C95.7339 63.3254 96.0292 63.3811 96.3262 63.3725Z" fill="#394149"/>
<path d="M110.907 64.2049C109.943 64.9959 108.734 65.4282 107.487 65.4282C106.24 65.4282 105.031 64.9959 104.067 64.2049C103.24 63.3412 102.778 62.1916 102.778 60.9958C102.778 59.7999 103.24 58.6503 104.067 57.7867C105.032 56.9977 106.24 56.5667 107.487 56.5667C108.733 56.5667 109.942 56.9977 110.907 57.7867C111.733 58.6484 112.195 59.7961 112.195 60.9901C112.195 62.184 111.733 63.3317 110.907 64.1935V64.2049ZM105.857 62.7001C106.075 62.908 106.333 63.0704 106.615 63.1781C106.896 63.2857 107.197 63.3363 107.498 63.3271C107.798 63.3348 108.096 63.2834 108.376 63.1758C108.655 63.0683 108.911 62.9066 109.128 62.7001C109.526 62.2322 109.744 61.6382 109.744 61.0243C109.744 60.4103 109.526 59.8163 109.128 59.3485C108.911 59.1419 108.655 58.9802 108.376 58.8727C108.096 58.7651 107.798 58.7137 107.498 58.7215C107.197 58.7122 106.896 58.7628 106.615 58.8704C106.333 58.9781 106.075 59.1405 105.857 59.3485C105.459 59.8163 105.241 60.4103 105.241 61.0243C105.241 61.6382 105.459 62.2322 105.857 62.7001Z" fill="#394149"/>
<path d="M116.31 54.9137C116.009 55.1775 115.622 55.3228 115.222 55.3228C114.821 55.3228 114.434 55.1775 114.133 54.9137C113.996 54.7847 113.887 54.6293 113.813 54.4567C113.739 54.2842 113.7 54.0984 113.7 53.9105C113.7 53.7226 113.739 53.5367 113.813 53.3642C113.887 53.1917 113.996 53.0362 114.133 52.9073C114.437 52.6501 114.823 52.509 115.222 52.509C115.62 52.509 116.006 52.6501 116.31 52.9073C116.447 53.0362 116.556 53.1917 116.63 53.3642C116.705 53.5367 116.743 53.7226 116.743 53.9105C116.743 54.0984 116.705 54.2842 116.63 54.4567C116.556 54.6293 116.447 54.7847 116.31 54.9137ZM116.55 65.4245C115.872 65.4577 115.203 65.2653 114.646 64.8773C114.418 64.7028 114.234 64.4762 114.111 64.2164C113.988 63.9566 113.929 63.6711 113.939 63.3839V57.1823C113.934 57.1375 113.938 57.0921 113.953 57.0495C113.968 57.0069 113.992 56.9681 114.024 56.9363C114.056 56.9044 114.094 56.8802 114.137 56.8655C114.18 56.8509 114.225 56.8461 114.27 56.8517H116.185C116.402 56.8517 116.504 56.9657 116.504 57.1823V62.5631C116.504 62.9963 116.698 63.2129 117.086 63.2129C117.258 63.2191 117.431 63.1999 117.599 63.1559C117.827 63.1559 117.952 63.2243 117.963 63.4295L118.134 64.8545C118.143 64.896 118.142 64.9389 118.132 64.9801C118.122 65.0213 118.104 65.0599 118.078 65.0934C118.052 65.1269 118.019 65.1545 117.982 65.1742C117.944 65.194 117.903 65.2054 117.861 65.2079C117.438 65.3473 116.995 65.4203 116.55 65.4245Z" fill="#394149"/>
<path d="M125.18 56.5783C125.778 56.5546 126.375 56.6514 126.935 56.8629C127.495 57.0744 128.007 57.3963 128.44 57.8095C129.246 58.6747 129.694 59.8132 129.694 60.9958C129.694 62.1783 129.246 63.3169 128.44 64.1821C128.009 64.5989 127.498 64.9239 126.937 65.1375C126.377 65.3511 125.779 65.4488 125.18 65.4247C124.326 65.4437 123.489 65.1835 122.797 64.6837V68.7991C122.797 69.0157 122.683 69.1183 122.466 69.1183H120.551C120.508 69.1265 120.463 69.1238 120.42 69.1107C120.378 69.0975 120.339 69.0742 120.308 69.0428C120.276 69.0114 120.253 68.9727 120.24 68.9303C120.227 68.8878 120.224 68.8428 120.232 68.7991V59.4511C120.245 59.3597 120.237 59.2663 120.208 59.1786C120.179 59.0909 120.13 59.0112 120.065 58.9458C119.999 58.8805 119.92 58.8313 119.832 58.8023C119.744 58.7732 119.651 58.7651 119.559 58.7785H119.183C118.932 58.7785 118.807 58.6873 118.807 58.5049V57.1597C118.801 57.0764 118.824 56.9937 118.872 56.9252C118.919 56.8568 118.989 56.8067 119.069 56.7835C119.464 56.6401 119.881 56.5706 120.3 56.5783C120.719 56.5413 121.139 56.63 121.506 56.8331C121.874 57.0362 122.173 57.3444 122.364 57.7183C122.731 57.3468 123.17 57.0542 123.654 56.8581C124.138 56.6621 124.657 56.5669 125.18 56.5783ZM123.401 62.7001C123.605 62.9125 123.849 63.0816 124.119 63.1971C124.389 63.3126 124.68 63.3721 124.974 63.3721C125.268 63.3721 125.559 63.3126 125.83 63.1971C126.1 63.0816 126.344 62.9125 126.548 62.7001C126.976 62.2225 127.201 61.5968 127.175 60.9559C127.205 60.3145 126.979 59.6873 126.548 59.2117C126.344 58.9993 126.1 58.8302 125.83 58.7147C125.559 58.5992 125.268 58.5396 124.974 58.5396C124.68 58.5396 124.389 58.5992 124.119 58.7147C123.849 58.8302 123.605 58.9993 123.401 59.2117C122.986 59.6957 122.771 60.319 122.797 60.9559C122.774 61.5923 122.989 62.2144 123.401 62.7001Z" fill="#394149"/>
<path d="M135.075 65.4245C134.051 65.4666 133.037 65.2218 132.145 64.7177C131.787 64.5022 131.483 64.209 131.254 63.8596C131.025 63.5103 130.877 63.1139 130.823 62.6999C130.823 62.4719 130.902 62.3579 131.153 62.3579H132.829C132.909 62.361 132.986 62.3861 133.052 62.4303C133.119 62.4746 133.172 62.5363 133.205 62.6087C133.445 63.2243 134.072 63.5321 135.075 63.5321C135.425 63.5481 135.773 63.4776 136.089 63.3269C136.199 63.2776 136.292 63.1996 136.361 63.1013C136.429 63.0029 136.469 62.8878 136.477 62.7683C136.477 62.4719 136.295 62.2667 135.93 62.1299C135.497 61.9859 135.05 61.8903 134.596 61.8449C134.059 61.7841 133.525 61.6889 133 61.5599C132.489 61.4443 132.025 61.1782 131.666 60.7961C131.455 60.5364 131.3 60.236 131.21 59.9137C131.12 59.5914 131.097 59.254 131.143 58.9226C131.189 58.5911 131.303 58.2726 131.477 57.987C131.651 57.7013 131.883 57.4546 132.156 57.2621C132.978 56.7387 133.942 56.4837 134.915 56.5325C135.857 56.5007 136.789 56.7337 137.606 57.2051C137.935 57.3914 138.218 57.6488 138.435 57.9584C138.652 58.268 138.797 58.6221 138.86 58.9949C138.86 59.2229 138.757 59.3369 138.552 59.3369H136.865C136.794 59.3411 136.723 59.3238 136.662 59.2872C136.601 59.2506 136.552 59.1964 136.523 59.1317C136.41 58.8617 136.198 58.6454 135.93 58.5275C135.628 58.3694 135.29 58.291 134.949 58.2995C134.615 58.2813 134.282 58.348 133.98 58.4933C133.874 58.5343 133.783 58.6061 133.718 58.6996C133.653 58.7931 133.617 58.9039 133.616 59.0177C133.623 59.1736 133.68 59.3231 133.778 59.4441C133.877 59.5652 134.012 59.6515 134.163 59.6903C134.601 59.8553 135.056 59.97 135.519 60.0323C136.053 60.1025 136.582 60.2014 137.104 60.3287C137.615 60.4444 138.08 60.7104 138.438 61.0925C138.63 61.303 138.778 61.5494 138.873 61.8175C138.969 62.0856 139.011 62.37 138.996 62.6543C139.006 63.0484 138.914 63.4383 138.728 63.7859C138.542 64.1336 138.269 64.4271 137.936 64.6379C137.084 65.1847 136.086 65.4591 135.075 65.4245Z" fill="#394149"/>
<path d="M151.046 64.8546C151.053 64.8951 151.051 64.9364 151.041 64.9763C151.031 65.0161 151.014 65.0535 150.989 65.0865C150.965 65.1194 150.934 65.1471 150.899 65.168C150.864 65.1888 150.825 65.2024 150.784 65.208C150.368 65.3439 149.934 65.4169 149.496 65.4246C149.063 65.4695 148.625 65.4018 148.226 65.228C147.826 65.0543 147.478 64.7804 147.216 64.4328C146.411 65.1251 145.369 65.4804 144.309 65.4246C143.816 65.4473 143.325 65.3667 142.865 65.1881C142.406 65.0094 141.989 64.7366 141.641 64.3872C141.296 64.0211 141.028 63.5891 140.854 63.117C140.679 62.6449 140.602 62.1425 140.627 61.6398V57.1824C140.627 56.9658 140.729 56.8518 140.946 56.8518H142.861C143.078 56.8518 143.18 56.9658 143.18 57.1824V61.2978C143.159 61.8105 143.335 62.3119 143.67 62.7C143.838 62.8778 144.042 63.0176 144.268 63.11C144.494 63.2024 144.737 63.2453 144.981 63.2358C145.231 63.2467 145.481 63.208 145.716 63.1219C145.95 63.0358 146.166 62.9041 146.349 62.7342C146.523 62.5552 146.658 62.3424 146.747 62.1091C146.835 61.8758 146.874 61.6268 146.862 61.3776V57.1824C146.862 56.9658 146.965 56.8518 147.182 56.8518H149.12C149.336 56.8518 149.439 56.9658 149.439 57.1824V62.5518C149.439 62.9964 149.633 63.213 150.009 63.213C150.185 63.2198 150.362 63.2006 150.533 63.156C150.576 63.1439 150.622 63.1418 150.666 63.1497C150.71 63.1576 150.751 63.1754 150.788 63.2017C150.824 63.228 150.854 63.2622 150.875 63.3017C150.896 63.3411 150.908 63.3849 150.909 63.4296L151.046 64.8546Z" fill="#394149"/>
<path d="M169.161 64.8545C169.171 64.8953 169.172 64.9379 169.164 64.9791C169.155 65.0204 169.138 65.0593 169.113 65.0931C169.088 65.1269 169.056 65.1547 169.019 65.1745C168.982 65.1944 168.941 65.2058 168.899 65.2079C168.475 65.3457 168.033 65.4187 167.588 65.4245C166.91 65.4595 166.24 65.2669 165.684 64.8773C165.443 64.7104 165.248 64.4868 165.115 64.2263C164.982 63.9658 164.915 63.6765 164.92 63.3839V60.7049C164.944 60.1937 164.773 59.6925 164.441 59.3027C164.281 59.1245 164.084 58.984 163.863 58.8914C163.642 58.7987 163.404 58.7562 163.164 58.7669C162.949 58.7588 162.734 58.7997 162.537 58.8866C162.339 58.9735 162.164 59.1041 162.024 59.2685C161.724 59.6505 161.57 60.1279 161.591 60.6137V64.8203C161.591 65.0369 161.489 65.1509 161.272 65.1509H159.345C159.301 65.1564 159.255 65.1517 159.213 65.1371C159.17 65.1224 159.131 65.0982 159.099 65.0663C159.068 65.0345 159.043 64.9957 159.029 64.9531C159.014 64.9105 159.009 64.865 159.015 64.8203V60.7049C159.04 60.1993 158.882 59.7016 158.57 59.3027C158.431 59.1351 158.257 59.0003 158.06 58.9077C157.863 58.8151 157.648 58.767 157.43 58.7669C157.198 58.7575 156.966 58.7973 156.75 58.8838C156.534 58.9702 156.338 59.1013 156.176 59.2685C155.85 59.6383 155.682 60.1214 155.709 60.6137V64.8203C155.714 64.865 155.71 64.9105 155.695 64.9531C155.68 64.9957 155.656 65.0345 155.624 65.0663C155.592 65.0982 155.554 65.1224 155.511 65.1371C155.468 65.1517 155.423 65.1564 155.378 65.1509H153.52C153.303 65.1509 153.201 65.0369 153.201 64.8203V59.4509C153.214 59.3595 153.206 59.2662 153.177 59.1784C153.148 59.0907 153.099 59.011 153.033 58.9456C152.968 58.8803 152.888 58.8311 152.801 58.8021C152.713 58.773 152.62 58.7649 152.528 58.7783H152.152C151.901 58.7783 151.776 58.6871 151.776 58.5047V57.1595C151.77 57.0763 151.793 56.9935 151.84 56.9251C151.888 56.8566 151.958 56.8066 152.038 56.7833C152.432 56.64 152.85 56.5704 153.269 56.5781C153.672 56.5438 154.076 56.6241 154.435 56.8096C154.794 56.9952 155.093 57.2785 155.298 57.6269C155.683 57.2624 156.139 56.9811 156.637 56.8006C157.135 56.6202 157.665 56.5444 158.194 56.5781C158.708 56.553 159.22 56.6494 159.689 56.8593C160.159 57.0693 160.572 57.3869 160.896 57.7865C161.273 57.3765 161.737 57.0553 162.253 56.8464C162.77 56.6374 163.326 56.5458 163.883 56.5781C164.38 56.5548 164.877 56.635 165.342 56.8136C165.807 56.9921 166.23 57.2652 166.584 57.6155C166.931 57.9808 167.199 58.4128 167.374 58.885C167.548 59.3573 167.625 59.8601 167.599 60.3629V62.5631C167.599 62.9963 167.793 63.2129 168.158 63.2129C168.334 63.2211 168.511 63.2019 168.682 63.1559C168.918 63.1559 169.043 63.2471 169.058 63.4295L169.161 64.8545Z" fill="#394149"/>
<path d="M35.4844 55.3698C36.3254 51.9894 38.2733 48.9874 41.0178 46.8421C43.7623 44.6967 47.1457 43.5312 50.6293 43.5312C54.1128 43.5312 57.4962 44.6967 60.2407 46.8421C62.9852 48.9874 64.9331 51.9894 65.7742 55.3698H64.4062C62.0984 55.3358 59.838 56.0255 57.9424 57.342C57.833 57.4212 57.7187 57.4936 57.6004 57.5586H57.4408C57.3224 57.4936 57.2082 57.4212 57.0988 57.342C55.1863 56.056 52.9339 55.3691 50.6293 55.3691C48.3246 55.3691 46.0722 56.056 44.1598 57.342C44.0504 57.4212 43.9361 57.4936 43.8178 57.5586H43.6582C43.5398 57.4936 43.4256 57.4212 43.3162 57.342C41.4205 56.0255 39.1601 55.3358 36.8524 55.3698H35.4844ZM61.9438 62.5176C62.646 61.9707 63.5164 61.6846 64.4062 61.7082H66.2416V58.0488H64.4062C62.8389 58.0299 61.3075 58.5177 60.04 59.4396C59.3267 59.9655 58.4638 60.2492 57.5776 60.2492C56.6914 60.2492 55.8285 59.9655 55.1152 59.4396C53.8155 58.5349 52.2699 58.0499 50.6863 58.0499C49.1027 58.0499 47.5571 58.5349 46.2574 59.4396C45.5441 59.9655 44.6812 60.2492 43.795 60.2492C42.9088 60.2492 42.0459 59.9655 41.3326 59.4396C40.0494 58.5059 38.496 58.0175 36.9094 58.0488H35.017V61.7082H36.8524C37.7421 61.6846 38.6125 61.9707 39.3148 62.5176C40.6121 63.423 42.156 63.9084 43.738 63.9084C45.32 63.9084 46.8638 63.423 48.1612 62.5176C48.8643 61.9724 49.7341 61.6865 50.6236 61.7082C51.5136 61.6827 52.3846 61.969 53.086 62.5176C54.3857 63.4224 55.9313 63.9074 57.5149 63.9074C59.0985 63.9074 60.6441 63.4224 61.9438 62.5176ZM61.9438 69.0612C62.646 68.5143 63.5164 68.2282 64.4062 68.2518H66.2416V64.5924H64.4062C62.8389 64.5735 61.3075 65.0613 60.04 65.9832C59.3267 66.5091 58.4638 66.7928 57.5776 66.7928C56.6914 66.7928 55.8285 66.5091 55.1152 65.9832C53.8155 65.0785 52.2699 64.5935 50.6863 64.5935C49.1027 64.5935 47.5571 65.0785 46.2574 65.9832C45.5441 66.5091 44.6812 66.7928 43.795 66.7928C42.9088 66.7928 42.0459 66.5091 41.3326 65.9832C40.0494 65.0495 38.496 64.5611 36.9094 64.5924H35.017V68.2518H36.8524C37.7421 68.2282 38.6125 68.5143 39.3148 69.0612C40.6121 69.9666 42.156 70.452 43.738 70.452C45.32 70.452 46.8638 69.9666 48.1612 69.0612C48.8643 68.516 49.7341 68.2301 50.6236 68.2518C51.5136 68.2263 52.3846 68.5126 53.086 69.0612C54.3857 69.966 55.9313 70.451 57.5149 70.451C59.0985 70.451 60.6441 69.966 61.9438 69.0612Z" fill="#394149"/>
</svg>
