<svg width="204" height="114" viewBox="0 0 204 114" fill="none" xmlns="http://www.w3.org/2000/svg">
<path d="M73.4917 50.2399H76.9117V64.0681H73.4917V50.2399ZM78.2683 58.8469C78.2683 55.4269 80.3659 53.3863 83.6035 53.3863C86.8411 53.3863 88.9387 55.4269 88.9387 58.8469C88.9387 62.2669 86.8867 64.3189 83.6035 64.3189C80.3203 64.3189 78.2683 62.3239 78.2683 58.8469ZM85.5073 58.8469C85.5073 56.9659 84.7663 55.8601 83.6035 55.8601C82.4407 55.8601 81.7111 57.0001 81.7111 58.8469C81.7111 60.6937 82.4293 61.8109 83.6035 61.8109C84.7777 61.8109 85.5073 60.7621 85.5073 58.8583V58.8469ZM90.2269 64.7407H93.5101C93.6663 65.0878 93.9305 65.3752 94.2633 65.5601C94.596 65.7449 94.9796 65.8174 95.3569 65.7667C96.6565 65.7667 97.3405 65.0599 97.3405 64.0339V62.1187H97.2721C96.9996 62.7057 96.5575 63.1975 96.0027 63.5308C95.448 63.864 94.8061 64.0234 94.1599 63.9883C91.6633 63.9883 90.0103 62.0845 90.0103 58.8127C90.0103 55.5409 91.5835 53.4775 94.2055 53.4775C94.8719 53.4513 95.5304 53.6295 96.0928 53.9881C96.6551 54.3467 97.0945 54.8686 97.3519 55.4839V53.5801H100.772V63.9541C100.772 66.4507 98.5717 68.0011 95.3227 68.0011C92.3017 68.0011 90.4207 66.6445 90.2269 64.7521V64.7407ZM97.3519 58.8355C97.3519 57.1711 96.5881 56.1223 95.3797 56.1223C94.1713 56.1223 93.4303 57.1597 93.4303 58.8355C93.4303 60.5113 94.1599 61.4575 95.3797 61.4575C96.5995 61.4575 97.3519 60.5341 97.3519 58.8469V58.8355ZM102.06 58.8355C102.06 55.4155 104.158 53.3749 107.395 53.3749C110.633 53.3749 112.742 55.4155 112.742 58.8355C112.742 62.2555 110.69 64.3075 107.395 64.3075C104.101 64.3075 102.06 62.3239 102.06 58.8469V58.8355ZM109.299 58.8355C109.299 56.9545 108.558 55.8487 107.395 55.8487C106.233 55.8487 105.56 57.0001 105.56 58.8583C105.56 60.7165 106.278 61.8223 107.441 61.8223C108.604 61.8223 109.299 60.7621 109.299 58.8583V58.8355ZM114.042 51.0949C114.033 50.7496 114.126 50.4094 114.311 50.1174C114.496 49.8255 114.763 49.5949 115.078 49.455C115.394 49.315 115.744 49.272 116.085 49.3314C116.425 49.3907 116.74 49.5497 116.99 49.7883C117.24 50.0269 117.413 50.3343 117.488 50.6715C117.563 51.0087 117.536 51.3605 117.41 51.6824C117.285 52.0043 117.067 52.2817 116.784 52.4795C116.501 52.6773 116.165 52.7866 115.82 52.7935C115.591 52.8092 115.361 52.7774 115.145 52.7001C114.929 52.6228 114.731 52.5017 114.564 52.3443C114.397 52.1869 114.265 51.9967 114.175 51.7856C114.085 51.5746 114.039 51.3471 114.042 51.1177V51.0949ZM114.042 53.6029H117.462V64.0681H114.042V53.6029ZM129.876 58.8355C129.876 62.2555 128.36 64.2049 125.761 64.2049C125.094 64.2477 124.431 64.0847 123.86 63.7381C123.289 63.3915 122.838 62.8779 122.569 62.2669H122.5V67.4197H119.08V53.5801H122.5V55.4497H122.569C122.826 54.8285 123.268 54.3016 123.835 53.9405C124.402 53.5795 125.066 53.4019 125.738 53.4319C128.36 53.4775 129.922 55.4383 129.922 58.8583L129.876 58.8355ZM126.456 58.8355C126.456 57.1711 125.692 56.1109 124.495 56.1109C123.298 56.1109 122.534 57.1825 122.523 58.8355C122.512 60.4885 123.298 61.5487 124.495 61.5487C125.692 61.5487 126.456 60.5113 126.456 58.8583V58.8355ZM135.747 53.3635C138.586 53.3635 140.307 54.7087 140.387 56.8633H137.275C137.275 56.1223 136.659 55.6549 135.713 55.6549C134.767 55.6549 134.345 56.0197 134.345 56.5555C134.345 57.0913 134.721 57.2623 135.485 57.4219L137.674 57.8665C139.76 58.3111 140.649 59.1547 140.649 60.7393C140.649 62.9053 138.677 64.2961 135.77 64.2961C132.863 64.2961 130.959 62.9053 130.811 60.7735H134.105C134.208 61.5487 134.824 62.0047 135.827 62.0047C136.83 62.0047 137.286 61.6741 137.286 61.1269C137.286 60.5797 136.967 60.4657 136.146 60.2947L134.174 59.8729C132.133 59.4511 131.062 58.3681 131.062 56.7721C131.085 54.7201 132.92 53.3863 135.747 53.3863V53.3635ZM152.06 64.0453H148.766V62.0959H148.698C148.516 62.7504 148.117 63.3232 147.565 63.7193C147.014 64.1154 146.343 64.3109 145.665 64.2733C145.146 64.3028 144.626 64.2205 144.141 64.0318C143.656 63.8432 143.217 63.5526 142.854 63.1798C142.49 62.807 142.212 62.3605 142.036 61.8707C141.86 61.3808 141.791 60.8589 141.835 60.3403V53.5801H145.255V59.5537C145.255 60.7963 145.893 61.4575 146.953 61.4575C147.202 61.458 147.448 61.4053 147.674 61.3031C147.901 61.2008 148.103 61.0513 148.267 60.8645C148.431 60.6778 148.554 60.4581 148.626 60.2202C148.698 59.9823 148.719 59.7318 148.686 59.4853V53.5801H152.106L152.06 64.0453ZM153.714 53.5801H157.02V55.5979H157.088C157.269 54.952 157.66 54.3846 158.198 53.9844C158.737 53.5842 159.393 53.3739 160.063 53.3863C160.746 53.3316 161.424 53.5359 161.962 53.9583C162.501 54.3808 162.861 54.9905 162.97 55.6663H163.039C163.246 54.9834 163.674 54.3886 164.256 53.9758C164.838 53.5631 165.541 53.3556 166.254 53.3863C166.719 53.3707 167.182 53.4531 167.613 53.6281C168.044 53.8032 168.434 54.067 168.756 54.4025C169.079 54.7379 169.327 55.1375 169.485 55.5752C169.643 56.0129 169.707 56.4789 169.674 56.9431V64.0681H166.254V57.8551C166.254 56.7151 165.741 56.1907 164.783 56.1907C164.569 56.1889 164.358 56.2329 164.163 56.3197C163.968 56.4066 163.794 56.5343 163.652 56.6942C163.51 56.8541 163.405 57.0425 163.342 57.2467C163.28 57.4509 163.262 57.6661 163.29 57.8779V64.0681H160.04V57.8095C160.04 56.7607 159.528 56.1907 158.593 56.1907C158.377 56.1907 158.163 56.2366 157.966 56.3252C157.769 56.4138 157.593 56.5432 157.45 56.7048C157.307 56.8664 157.2 57.0565 157.135 57.2627C157.071 57.4688 157.051 57.6863 157.077 57.9007V64.0681H153.657L153.714 53.5801Z" fill="#394149"/>
<path d="M63.9271 50.8667C63.347 49.5402 62.5791 48.304 61.6471 47.196C60.2694 45.5091 58.5501 44.1332 56.6023 43.1588C54.6545 42.1843 52.5224 41.6334 50.3463 41.5423C48.1703 41.4512 45.9996 41.822 43.9772 42.6302C41.9547 43.4385 40.1264 44.6659 38.6125 46.2317C37.0986 47.7974 35.9335 49.666 35.1938 51.7145C34.4541 53.763 34.1566 55.945 34.3209 58.1167C34.4853 60.2885 35.1077 62.4008 36.1472 64.3147C37.1866 66.2286 38.6197 67.9006 40.3519 69.2207C41.4634 70.0847 42.6916 70.7871 43.9999 71.3069C45.8342 72.0586 47.7974 72.4458 49.7797 72.4469C53.8717 72.4379 57.7931 70.8068 60.6844 67.9112C63.5756 65.0157 65.2009 61.0919 65.2039 56.9999C65.2069 54.8893 64.7722 52.8009 63.9271 50.8667ZM49.7683 44.6765C51.5485 44.6764 53.3072 45.0654 54.9211 45.8165C54.5276 45.9866 54.1138 46.1054 53.6899 46.17C52.2953 46.3718 51.0033 47.0193 50.0068 48.0158C49.0103 49.0123 48.3628 50.3043 48.1609 51.6989C48.0723 52.4811 47.7166 53.2088 47.1538 53.7591C46.5909 54.3095 45.8555 54.6489 45.0715 54.7199C43.6769 54.9218 42.3849 55.5693 41.3884 56.5658C40.3919 57.5623 39.7444 58.8543 39.5425 60.2489C39.4742 60.9927 39.1569 61.6916 38.6419 62.2325C37.7535 60.3553 37.3544 58.2837 37.4817 56.2107C37.6091 54.1377 38.2588 52.1307 39.3704 50.3763C40.4819 48.6219 42.0193 47.1772 43.8393 46.1766C45.6593 45.1761 47.7028 44.6522 49.7797 44.6537L49.7683 44.6765ZM40.3405 64.9799C40.4773 64.8545 40.6141 64.7405 40.7509 64.6037C41.7651 63.6204 42.4161 62.3224 42.5977 60.9215C42.6714 60.1341 43.023 59.3986 43.5895 58.8467C44.1347 58.2792 44.8686 57.9305 45.6529 57.8663C47.0476 57.6645 48.3396 57.017 49.3361 56.0205C50.3325 55.024 50.98 53.732 51.1819 52.3373C51.2313 51.5137 51.5847 50.7377 52.1737 50.16C52.7324 49.6035 53.4732 49.2674 54.2599 49.2137C55.5412 49.0375 56.7362 48.4679 57.6799 47.5836C58.7546 48.4751 59.6651 49.5477 60.3703 50.7528C60.327 50.8113 60.2773 50.8648 60.2221 50.9123C59.678 51.4849 58.9451 51.8412 58.1587 51.9156C56.7626 52.1139 55.4687 52.7603 54.4716 53.7574C53.4745 54.7545 52.8281 56.0484 52.6297 57.4445C52.5494 58.2294 52.2002 58.9623 51.6413 59.5191C51.0824 60.0759 50.3482 60.4223 49.5631 60.4997C48.1644 60.7001 46.8676 61.3463 45.8653 62.3424C44.8631 63.3384 44.2089 64.6313 43.9999 66.0287C43.9386 66.5859 43.7472 67.1209 43.4413 67.5905C42.2717 66.8961 41.2241 66.0141 40.3405 64.9799ZM49.7683 69.3803C48.6115 69.3816 47.4603 69.2204 46.3483 68.9015C46.7287 68.1925 46.976 67.4197 47.0779 66.6215C47.1578 65.8385 47.5054 65.107 48.062 64.5504C48.6185 63.9938 49.3501 63.6462 50.1331 63.5663C51.5299 63.3667 52.8245 62.7202 53.8232 61.7236C54.8219 60.7269 55.471 59.4337 55.6735 58.0373C55.7534 57.2543 56.101 56.5228 56.6576 55.9662C57.2141 55.4096 57.9457 55.062 58.7287 54.9821C59.7798 54.8454 60.7817 54.4541 61.6471 53.8421C62.1277 55.6638 62.1846 57.5713 61.8135 59.4183C61.4425 61.2653 60.6532 63.0028 59.5064 64.4975C58.3595 65.9921 56.8855 67.2042 55.1975 68.0407C53.5095 68.8773 51.6523 69.316 49.7683 69.3233V69.3803Z" fill="#394149"/>
</svg>
