<svg width="29" height="27" viewBox="0 0 29 27" fill="none" xmlns="http://www.w3.org/2000/svg">
<path fill-rule="evenodd" clip-rule="evenodd" d="M3.86068 9.65152C1.78692 7.57775 1.78692 4.21551 3.86069 2.14175C5.93445 0.0679822 9.29669 0.0679829 11.3705 2.14175L26.429 17.2003C28.5028 19.2741 28.5028 22.6363 26.429 24.7101C24.3553 26.7839 20.993 26.7839 18.9193 24.7101L3.86068 9.65152ZM10.4712 24.9039C10.4712 25.7899 9.75297 26.5081 8.86702 26.5081H5.65868C3.00081 26.5081 0.846185 24.3535 0.846185 21.6956C0.846185 19.0377 3.00081 16.8831 5.65868 16.8831C8.31656 16.8831 10.4712 19.0377 10.4712 21.6956V24.9039ZM20.96 0.594641C20.074 0.594641 19.3558 1.31285 19.3558 2.19881V5.40714C19.3558 8.06501 21.5104 10.2196 24.1683 10.2196C26.8262 10.2196 28.9808 8.06501 28.9808 5.40714C28.9808 2.74927 26.8262 0.594641 24.1683 0.594641H20.96Z" fill="white"/>
</svg>
